<mxfile host="app.diagrams.net" modified="2024-06-17T16:30:20.645Z" agent="Mozilla/5.0 (Windows NT 10.0; Win64; x64) AppleWebKit/537.36 (KHTML, like Gecko) Chrome/125.0.0.0 Safari/537.36" version="24.4.4" etag="yoAEB88X-wr5YYLwLYEI" type="github">
  <diagram name="Page-1" id="vpja1rPIcE6wF21qd5m2">
    <mxGraphModel>
      <root>
        <mxCell id="0" />
        <mxCell id="1" parent="0" />
      </root>
    </mxGraphModel>
  </diagram>
</mxfile>
